<?xml version="1.0" encoding="utf-8"?>
<svg width="320px" height="27px" viewBox="0 0 320 27" version="1.1" xmlns:xlink="http://www.w3.org/1999/xlink" xmlns="http://www.w3.org/2000/svg">
  <desc>Created with Lunacy</desc>
  <g id="ED-Logo">
    <g id="ED-Logo" transform="translate(68.8 0)">
      <path d="M7.14667 0L0 0L0 20.0118L7.14667 20.0118C13.4933 20.0118 17.5467 16.2529 17.5467 9.95294C17.5467 3.65294 13.4933 0 7.14667 0ZM12.48 9.95294C12.48 13.8176 10.4 15.8294 6.98667 15.8294L4.96 15.8294L4.96 4.18235L6.98667 4.18235C10.2933 4.18235 12.48 6.14118 12.48 9.95294Z" transform="translate(0.7466667 0.5294118)" id="Path_1384" fill="#FFFFFF" fill-rule="evenodd" stroke="none" />
      <path d="M14.2407 6.98824C14.2407 2.96471 11.7874 0 7.52073 0C2.8274 0 -0.0526052 3.28235 0.000728116 7.57059C0.000728116 11.4353 2.8274 15.1412 8.00073 15.1412C10.2425 15.1362 12.419 14.3912 14.1874 13.0235L12.3741 9.63529C11.2173 10.5104 9.82555 11.0262 8.37406 11.1176C6.74387 11.2186 5.28785 10.112 4.96073 8.52353L14.1341 8.52353C14.1961 8.01392 14.2317 7.50148 14.2407 6.98824ZM8.90495 4.19299C9.28963 4.60498 9.4838 5.15754 9.44073 5.71765L5.0674 5.71765C5.33406 4.55294 6.0274 3.54706 7.41406 3.54706C7.97996 3.5469 8.52028 3.781 8.90495 4.19299Z" transform="translate(20.15927 5.823529)" id="Path_1385" fill="#FFFFFF" fill-rule="evenodd" stroke="none" />
      <path d="M0 0L5.12 0L7.36 7.67647C7.62667 8.57647 7.89333 10.1647 7.89333 10.1647L7.94667 10.1647C7.94667 10.1647 8.21333 8.62941 8.48 7.67647L10.72 0L15.8933 0L10.9333 14.4529L4.96 14.4529L0 0Z" transform="translate(35.14667 6.141176)" id="Path_1386" fill="#FFFFFF" stroke="none" />
      <path d="M14.2407 6.98824C14.2407 2.96471 11.7874 0 7.52073 0C2.8274 0 -0.0526052 3.28235 0.000728116 7.57059C0.000728116 11.4353 2.8274 15.1412 8.00073 15.1412C10.2425 15.1362 12.419 14.3912 14.1874 13.0235L12.3741 9.63529C11.2173 10.5104 9.82555 11.0262 8.37406 11.1176C6.74387 11.2186 5.28785 10.112 4.96073 8.52353L14.1341 8.52353C14.1961 8.01392 14.2317 7.50148 14.2407 6.98824ZM8.90495 4.19299C9.28963 4.60498 9.4838 5.15754 9.44073 5.71765L5.0674 5.71765C5.33406 4.55294 6.0274 3.54706 7.41406 3.54706C7.97996 3.5469 8.52028 3.781 8.90495 4.19299Z" transform="translate(51.7326 5.823529)" id="Path_1387" fill="#FFFFFF" fill-rule="evenodd" stroke="none" />
      <path d="M0.0533333 0L4.96 0L4.96 14.0824C4.96 15.4588 5.22666 15.9353 6.29333 15.9353C6.49034 15.9417 6.68739 15.9239 6.88 15.8824L6.88 20.1176C6.38576 20.1915 5.88646 20.2269 5.38666 20.2235C2.77333 20.2235 0 19.5882 0 14.7706L0 0L0.0533333 0Z" transform="translate(68.42667 0.5294118)" id="Path_1388" fill="#FFFFFF" stroke="none" />
      <path d="M16.5333 7.57059C16.5333 3.07059 12.8533 0 8.26667 0C3.68 0 0.0533333 3.01765 0 7.57059C0 12.0706 3.68 15.0882 8.26667 15.0882C12.8533 15.0882 16.5333 12.0706 16.5333 7.57059ZM10.6822 10.0284C10.0558 10.6902 9.18149 11.0653 8.26667 11.0647C7.35184 11.0653 6.47752 10.6902 5.85116 10.0284C5.2248 9.3665 4.90223 8.47688 4.96 7.57059C4.96 5.4 6.50667 4.02353 8.26667 4.02353C10.0267 4.02353 11.5733 5.4 11.5733 7.57059C11.6311 8.47688 11.3085 9.3665 10.6822 10.0284Z" transform="translate(76.8 5.823529)" id="Path_1389" fill="#FFFFFF" fill-rule="evenodd" stroke="none" />
      <path d="M4.42667 0.373334L0.0533333 0.373334L0.0533333 20.3322L4.96 20.3322L4.96 14.9322C4.96 14.2439 4.90667 13.7145 4.90667 13.7145L4.96 13.7145C5.97596 14.6044 7.28508 15.094 8.64 15.091C12.48 15.091 15.4133 12.1263 15.4133 7.57333C15.4133 3.07333 12.8 0.00274611 8.85333 0.00274611C7.14193 -0.0512391 5.50377 0.693246 4.42667 2.01451L4.37333 2.01451C4.40778 1.71571 4.42558 1.41526 4.42667 1.11451L4.42667 0.373334ZM10.4 7.67922C10.4 9.90275 9.12 11.1204 7.57333 11.1204C5.65333 11.1204 4.74667 9.42628 4.74667 7.67922C4.74667 5.19098 6.08 4.13216 7.57333 4.13216C9.22667 4.13216 10.4 5.50863 10.4 7.67922Z" transform="translate(95.78667 5.767842)" id="Path_1390" fill="#FFFFFF" fill-rule="evenodd" stroke="none" />
      <path d="M0.0533333 0.324988L4.74667 0.324988L4.74667 1.59558C4.74558 1.89632 4.72778 2.19678 4.69333 2.49558L4.74667 2.49558C5.66364 0.987808 7.2929 0.0493858 9.06666 0.00734064C10.796 -0.0946888 12.4091 0.874444 13.12 2.44263L13.1733 2.44263C14.2153 0.914945 15.9548 0.00200978 17.8133 0.00734064C20.48 0.00734064 22.5067 1.43675 22.5067 5.40734L22.5067 14.7779L17.6 14.7779L17.6 6.20146C17.6 5.14263 17.3867 4.40146 16.48 4.40146C14.3467 4.40146 13.7067 6.5191 13.7067 8.63675L13.7067 14.725L8.8 14.725L8.8 6.20146C8.8 5.14263 8.58666 4.40146 7.68 4.40146C5.44 4.40146 4.90667 6.67793 4.90667 8.63675L4.90667 14.725L0 14.725L0 0.324988L0.0533333 0.324988Z" transform="translate(113.6 5.816189)" id="Path_1391" fill="#FFFFFF" stroke="none" />
      <path d="M14.2407 6.98824C14.2407 2.96471 11.7874 0 7.52073 0C2.82739 0 -0.0526052 3.28235 0.000728116 7.57059C0.000728116 11.4353 2.82739 15.1412 8.00073 15.1412C10.2425 15.1362 12.419 14.3912 14.1874 13.0235L12.3741 9.63529C11.2173 10.5104 9.82555 11.0262 8.37406 11.1176C6.74387 11.2186 5.28785 10.112 4.96073 8.52353L14.1341 8.52353C14.1961 8.01392 14.2317 7.50148 14.2407 6.98824ZM8.90495 4.19299C9.28963 4.60498 9.4838 5.15754 9.44073 5.71765L5.06739 5.71765C5.33406 4.55294 6.02739 3.54706 7.41406 3.54706C7.97995 3.5469 8.52028 3.781 8.90495 4.19299Z" transform="translate(138.5059 5.823529)" id="Path_1392" fill="#FFFFFF" fill-rule="evenodd" stroke="none" />
      <path d="M6.0633e-14 0.321199L4.69333 0.321199L4.69333 1.59179C4.69224 1.89253 4.67444 2.19299 4.64 2.49179L4.69333 2.49179C5.6694 0.886842 7.44601 -0.0658811 9.33333 0.00355197C12.2667 0.00355197 14.56 1.32708 14.56 5.40355L14.56 14.7741L9.65333 14.7741L9.65333 6.30355C9.65333 4.98002 9.12 4.39767 8.05333 4.39767C5.86667 4.39767 4.90667 6.19767 4.90667 8.26238L4.90667 14.7741L0 14.7741L0 0.321199L6.0633e-14 0.321199Z" transform="translate(155.3067 5.819977)" id="Path_1393" fill="#FFFFFF" stroke="none" />
      <path d="M1.86667 7.88823L0 7.88823L0 4.12941L2.02667 4.12941L2.02667 0L6.77334 0L6.77334 4.12941L9.81334 4.12941L9.81334 7.88823L6.77334 7.88823L6.77334 12.3353C6.77334 13.9765 8.42667 14.1882 9.38667 14.1882C9.60122 14.1911 9.81555 14.1734 10.0267 14.1353L10.0267 18.3706C9.58577 18.441 9.13991 18.4764 8.69334 18.4765C6.4 18.4765 1.86667 17.8412 1.86667 13.0235L1.86667 7.88823Z" transform="translate(171.9467 2.27647)" id="Path_1394" fill="#FFFFFF" stroke="none" />
    </g>
  </g>
</svg>