<svg width="160" height="134" viewBox="0 0 160 134" fill="none" xmlns="http://www.w3.org/2000/svg">
<g id="signature">
<g id="Group_131">
<path id="Path_132" fill-rule="evenodd" clip-rule="evenodd" d="M52.8008 110.591C53.3716 110.663 53.9451 110.736 54.5205 110.815H54.5251C54.5251 111.008 54.5322 111.145 54.5373 111.244C54.5449 111.389 54.5482 111.454 54.5186 111.496C54.2107 111.944 53.889 112.382 53.5673 112.819L53.5669 112.82C50.3531 117.149 47.2157 121.504 45.8428 126.816C45.0134 130.043 46.3072 131.95 49.6699 132.144C51.5691 132.27 53.4667 131.876 55.1586 131.006C58.3168 129.4 61.2228 127.341 63.7849 124.896C68.2196 120.467 72.412 115.802 76.3439 110.922C78.2174 108.458 80.8124 106.637 83.7692 105.711C94.3528 102.706 104.535 98.4393 114.096 93.0025C117.768 90.9577 121.177 88.4735 124.247 85.605C126.997 82.9709 126.707 80.2826 123.581 77.9771C119.97 75.3155 115.814 74.2802 111.443 73.8038C110.96 73.7508 110.477 73.7063 109.993 73.6619C109.147 73.5841 108.301 73.5064 107.463 73.3826C104.562 72.9512 104.465 72.7639 106.084 70.5291C107.884 68.0382 109.729 65.5803 111.589 63.1315C112.065 62.3917 112.668 61.7417 113.37 61.2115C118.033 58.3083 121.69 54.3533 125.332 50.4143C126.084 49.6013 126.835 48.789 127.595 47.9868C131.43 43.9349 135.068 39.7059 138.706 35.477C140.155 33.7928 141.604 32.1086 143.066 30.4356C148.123 24.6433 153.105 18.7895 157.672 12.6117C158.343 11.7457 158.896 10.7948 159.317 9.78395C159.938 8.16861 158.859 7.00483 157.088 7.23795C156.328 7.40646 155.621 7.75707 155.028 8.25947C150.661 11.2235 147.119 15.0253 143.571 18.8342C143.368 19.0518 143.166 19.2695 142.963 19.487C139.157 23.5668 135.725 27.944 132.294 32.3211C128.549 37.0977 124.804 41.8742 120.573 46.2641C118.558 48.3547 116.574 50.4788 114.592 52.6021C113.675 53.5847 112.757 54.5671 111.837 55.5459C112.629 53.0725 113.888 50.7731 115.545 48.7715C115.847 48.3597 116.152 47.9494 116.457 47.5391C118.377 44.9533 120.297 42.3683 121.651 39.4319C121.744 39.2317 121.895 39.0301 122.049 38.8261C122.452 38.2903 122.868 37.7372 122.27 37.1456C121.599 36.4815 120.936 36.9768 120.338 37.4239C120.2 37.5267 120.066 37.627 119.936 37.7101C118.695 38.4372 117.519 39.2707 116.423 40.201C112.813 43.4353 109.383 46.8638 106.148 50.4713C104.001 53.0957 101.558 55.4646 98.8681 57.5311C98.7401 56.7873 98.9942 56.0291 99.5449 55.5119C101.106 53.4062 102.583 51.2419 104.059 49.0779C106.471 45.5429 108.882 42.0083 111.663 38.7298C111.686 38.7037 111.708 38.6773 111.731 38.6506C112.211 38.0863 112.804 37.3883 112.215 36.7161C111.454 35.8425 110.616 36.5139 109.991 37.0146C109.957 37.0421 109.924 37.069 109.891 37.0952C108.338 38.3305 106.829 39.6265 105.41 41.0032C102.933 43.411 100.473 45.8348 98.0129 48.2588C95.7644 50.4742 93.5156 52.6897 91.2543 54.8933C91.1147 55.0288 90.9783 55.1729 90.8401 55.3188C90.1143 56.0854 89.3394 56.9038 87.8014 56.8005C87.9343 56.5097 88.0574 56.239 88.1737 55.9831C88.4727 55.3255 88.7274 54.7652 88.9922 54.2095C90.0579 51.9869 91.4318 49.9463 92.8064 47.9047C93.7602 46.4881 94.7143 45.071 95.566 43.5923C96.5159 41.8711 97.3404 40.0837 98.0331 38.2443C98.4019 37.3265 98.6373 36.2664 97.7315 35.5138C97.0083 34.9141 96.2497 35.2748 95.5375 35.6135C95.4366 35.6615 95.3366 35.709 95.2377 35.7533C92.495 36.9548 89.9649 38.591 87.7453 40.5984C87.6231 40.7105 87.5106 40.8496 87.3955 40.9918C87.0086 41.47 86.5929 41.9837 85.6828 41.6264C85.8882 41.3488 86.0874 41.0691 86.2857 40.7906C86.7273 40.1706 87.1643 39.5568 87.6561 38.9868C95.4802 29.917 103.58 21.084 111.956 12.4878C114.319 10.0669 116.631 7.59655 118.943 5.12732C119.412 4.6262 119.881 4.12514 120.35 3.62454C120.719 3.22211 121.024 2.7663 121.256 2.27261C121.379 1.97365 121.373 1.63727 121.24 1.34287C121.005 0.93889 120.492 0.792839 120.079 1.01246C119.364 1.30855 118.689 1.69538 118.073 2.16339C116.107 3.76232 114.265 5.50648 112.561 7.38113C110.39 9.82636 108.285 12.3238 106.18 14.8216C103.332 18.2004 100.484 21.5798 97.4704 24.8314C95.8774 26.5546 94.2204 28.2183 92.564 29.8814C89.7905 32.6661 87.0187 35.4492 84.5518 38.5068C83.969 39.5327 82.9447 40.2331 81.7757 40.4048C81.9807 39.7852 82.1914 39.1835 82.3979 38.5935C83.0768 36.6545 83.711 34.843 83.955 32.943C84.1959 31.623 83.8541 30.2634 83.0172 29.2134C82.1804 28.1634 80.93 27.5252 79.5872 27.4628C78.8118 27.3807 78.0311 27.3601 77.2524 27.4013C70.3274 27.6555 63.92 29.8867 57.7049 32.5952C47.0492 37.2383 37.578 43.6859 28.7145 51.089C18.3292 59.7568 9.74899 69.8077 3.70301 81.7842C0.651979 87.8224 -0.933308 94.2278 0.585772 101.093C1.46117 105.046 3.73336 107.501 7.6929 108.455C11.3898 109.39 15.2875 109.143 18.8368 107.751C23.7186 105.913 28.3496 103.471 32.6207 100.48C32.8245 100.334 33.0206 100.171 33.2174 100.008C33.857 99.4769 34.5044 98.9395 35.4501 98.9591C37.566 105.108 38.9793 106.577 44.9655 108.931C47.4635 109.914 50.1018 110.248 52.8008 110.591ZM118.247 55.2618L118.246 55.2627C117.911 55.5787 117.577 55.8947 117.244 56.2131H117.243C117.245 55.0964 117.694 54.0268 118.49 53.2422C121.35 49.3536 124.425 45.6271 127.7 42.0798C128.866 40.8417 129.758 39.374 130.656 37.8965C131.294 36.8472 131.935 35.7929 132.679 34.8126C138.987 26.4917 146.127 18.8831 153.292 11.2855C153.595 10.9656 153.916 10.6634 154.254 10.3805L154.309 10.3335L154.412 10.2465C155.144 9.62202 156.041 8.8574 156.847 9.59213C157.636 10.3067 157.024 10.9354 156.469 11.5065C156.298 11.6821 156.133 11.8523 156.015 12.0179C151.015 18.963 145.625 25.6196 139.87 31.9554C138.38 33.611 136.897 35.274 135.415 36.937L135.414 36.9381L135.412 36.9404L135.41 36.9427C130.461 42.4936 125.512 48.0448 120.259 53.3239C119.602 53.9833 118.925 54.6226 118.247 55.2618ZM39.3545 91.8957C44.5812 87.3654 49.7986 82.7864 53.9274 77.1924C47.6745 80.7535 42.4984 85.3324 39.3545 91.8957ZM95.7986 81.473C92.7338 83.0975 89.7297 84.5991 86.7081 86.0979C85.3689 86.8627 84.1908 87.8791 83.2386 89.0908C82.7209 89.681 82.6777 90.2941 83.4878 90.664C85.2984 91.49 89.166 90.842 90.2474 89.3891C91.5901 87.5791 92.868 85.722 94.146 83.8648L94.1462 83.8646C94.6956 83.0661 95.245 82.2677 95.7996 81.473H95.7986ZM112.37 57.7862L112.365 57.7855L112.364 57.7835L112.37 57.7862ZM112.365 57.7855C111.691 57.6876 111.338 58.0842 110.988 58.4764C110.843 58.6397 110.698 58.8022 110.531 58.928C110.421 59.0114 110.31 59.0998 110.199 59.1891C109.412 59.8176 108.569 60.4907 107.606 59.8036C106.568 59.0662 107.089 58.139 107.569 57.2818L107.57 57.2816L107.571 57.2797C107.644 57.1496 107.716 57.021 107.781 56.895C107.85 56.763 107.933 56.6353 108.016 56.5077C108.035 56.4789 108.054 56.4501 108.072 56.4212L108.102 56.3743L108.126 56.337C110.321 52.6732 112.709 49.128 115.28 45.7161C115.896 44.9313 116.489 44.1279 117.082 43.3239C117.354 42.9556 117.626 42.5871 117.9 42.2202C116.282 42.7884 114.822 43.7321 113.641 44.9736C112.273 46.3995 110.945 47.8629 109.617 49.3264C106.596 52.6558 103.574 55.9859 100.076 58.8766C99.0295 59.744 98.0719 60.7148 97.114 61.6859C96.6793 62.1266 96.2446 62.5673 95.8014 62.9985C95.1016 63.6832 94.594 64.3834 95.7849 65.0773C98.3853 66.3872 100.149 68.9175 100.475 71.8067C100.611 73.042 101.536 73.0815 102.375 72.2408C102.919 71.6968 103.418 71.1099 103.868 70.4859C106.511 66.8508 109.137 63.2047 111.744 59.5475C111.793 59.478 111.845 59.4085 111.898 59.3383C112.225 58.9003 112.573 58.4347 112.365 57.7855ZM62.7062 107.812C62.2277 107.727 61.7618 107.582 61.3196 107.381H61.3205C62.9738 105.628 64.7404 104.282 66.455 102.975L66.455 102.975C67.402 102.253 68.333 101.544 69.2203 100.785C70.3231 99.8396 71.4479 98.9173 72.5728 97.9949L72.5732 97.9946L72.5735 97.9942L72.5739 97.9939L72.5743 97.9936L72.5747 97.9933L72.5751 97.993L72.5755 97.9926L72.5759 97.9923C74.4323 96.4701 76.2889 94.9477 78.0478 93.3229C80.2579 91.2882 82.7736 91.4761 85.291 91.6642H85.2912H85.2913H85.2915H85.2916H85.2917H85.2919H85.292H85.2921C85.8245 91.704 86.3569 91.7438 86.8865 91.7626C87.7591 91.792 87.7692 92.6767 87.3711 93.2898C85.0351 97.1304 82.3969 100.779 79.4814 104.203C79.0063 104.665 78.4187 104.996 77.7766 105.163C72.8647 106.59 67.8113 107.479 62.7062 107.812ZM94.7237 75.9304C92.5994 76.335 90.4264 76.6541 88.2324 76.9764L88.2322 76.9764C83.6575 77.6483 78.9915 78.3336 74.4865 79.8347C74.4721 79.8398 74.4575 79.8446 74.4429 79.8495L74.3892 79.8669C74.3165 79.8903 74.2432 79.9139 74.1747 79.9449C72.3274 80.7847 70.3577 81.7089 70.4046 84.0016C70.4442 86.2043 72.2023 87.3874 74.1058 88.1951C74.5373 88.3791 75.0022 88.4976 75.4649 88.6156L75.465 88.6156C76.087 88.7742 76.7049 88.9318 77.2322 89.2459C79.063 90.3354 80.3761 89.6131 81.6763 88.4199C82.3544 87.7948 83.0343 87.172 83.7141 86.5493L83.7147 86.5488L83.7153 86.5483L83.7159 86.5477L83.7164 86.5472L83.717 86.5467L83.7176 86.5462L83.7181 86.5456C84.656 85.6866 85.5935 84.8279 86.5251 83.964C86.6431 83.8548 86.761 83.7402 86.8799 83.6247L86.88 83.6246C87.4957 83.0265 88.1385 82.402 88.9692 82.355C91.2409 82.2317 92.7397 80.9259 94.2367 79.6218L94.2368 79.6217L94.2369 79.6217L94.237 79.6216L94.2371 79.6215L94.2372 79.6214L94.2373 79.6214L94.2374 79.6213C94.7901 79.1397 95.3427 78.6583 95.9338 78.2368C96.5436 77.9281 96.8778 77.2563 96.7559 76.5848C96.5665 75.9799 96.0794 75.9765 95.4708 75.9724C95.2372 75.9708 94.9858 75.969 94.7265 75.9331L94.7237 75.9304ZM57.577 127.584C55.4206 129.177 52.8849 130.181 50.2207 130.496L50.2235 130.499C48.3292 130.551 47.5366 129.86 47.6396 127.963C47.6503 126.436 47.9241 124.922 48.4488 123.488C50.1963 119.584 52.5515 115.981 55.4272 112.812C56.7362 111.282 58.594 110.327 60.6014 110.15C61.6389 110.023 62.6786 109.911 63.7182 109.8L63.7183 109.8L63.7184 109.8L63.7186 109.799L63.7187 109.799L63.7188 109.799L63.7189 109.799C67.1026 109.435 70.4854 109.071 73.7913 108.201C74.3182 108.061 74.9619 107.902 75.3665 108.372C75.9064 109.002 75.438 109.549 75.0365 110.017L74.9821 110.081L74.6038 110.527L74.2101 110.992L74.21 110.992C69.1412 116.978 64.0695 122.967 57.577 127.584ZM95.8851 38.0368L95.8812 38.0374L95.8823 38.0332L95.8851 38.0368ZM95.8812 38.0374C89.4153 38.9383 66.7262 62.3763 65.6322 67.7197C73.5132 64.517 81.9857 63.0213 90.4892 63.3316C91.9154 63.3996 92.6851 62.4597 93.2589 61.3271C94.3147 59.4067 95.5167 57.5699 96.8543 55.8331C98.7682 53.1511 100.638 50.4382 102.574 47.629L102.574 47.6279L102.575 47.6275C103.429 46.3881 104.296 45.13 105.185 43.8475C104.084 44.3736 103.128 45.1615 102.403 46.142C99.3275 49.9115 95.6984 53.1257 92.0694 56.3397L92.0692 56.3399C90.6687 57.5802 89.2683 58.8205 87.8998 60.0927C87.5825 60.3991 87.2469 60.686 86.8947 60.9518C86.2612 61.4189 85.5651 61.8861 84.7798 61.3473C84.2711 60.9033 84.0734 60.2011 84.2759 59.5576C84.4964 58.6016 84.8551 57.6827 85.3407 56.8299C87.0761 52.8831 89.5124 49.3494 91.9474 45.8178L91.9503 45.8136C92.3116 45.2896 92.6728 44.7656 93.0318 44.2403C94.3293 42.3501 95.293 40.2522 95.8812 38.0374ZM84.7347 103.441C84.0827 103.752 83.3104 103.668 82.7412 103.223L82.7421 103.222C84.0055 100.901 85.4632 98.6903 87.0998 96.6141C88.9924 94.0163 90.9055 91.4328 92.8187 88.8491L92.8189 88.8489L92.8191 88.8486L92.8193 88.8484L92.8195 88.8481C95.5389 85.1757 98.2586 81.503 100.92 77.7889C101.953 76.0606 103.893 75.0828 105.9 75.2787C109.901 75.4021 113.878 75.9491 117.764 76.9106C119.282 77.264 120.723 77.8904 122.016 78.7591C124.685 80.6755 124.785 82.7479 122.344 84.9561C119.977 87.1143 117.388 89.0165 114.62 90.6309C105.24 96.1427 95.1982 100.447 84.7347 103.441ZM54.3559 108.573L54.5178 108.576C57.3229 108.623 57.4109 108.624 60.057 106.462C63.3418 103.779 66.5908 101.06 69.8402 98.3402L69.8406 98.3399L69.8414 98.3392L69.8417 98.3389C70.7344 97.5918 71.6271 96.8447 72.5205 96.0983C72.7683 95.8911 73.017 95.6847 73.2657 95.4784L73.266 95.4782C74.3754 94.5577 75.4848 93.6373 76.5168 92.6409C77.2699 91.9177 77.0106 91.0393 75.9651 91.0393C73.6829 91.0313 72.3265 89.6359 71.0083 88.2798L71.0082 88.2798L71.0082 88.2797L71.0081 88.2797C70.673 87.9349 70.3403 87.5926 69.9954 87.2763C67.5412 85.0323 67.7968 82.4771 70.2271 80.1486C72.3951 78.2094 75.1029 76.9744 77.9908 76.6077C79.1345 76.4095 80.2774 76.2057 81.4205 76.0018L81.4223 76.0015L81.4223 76.0015C86.3015 75.1314 91.1832 74.2609 96.1324 73.8222C98.6759 73.5982 99.1669 72.7906 98.4644 70.3877C98.1513 69.2113 97.4206 68.1884 96.4083 67.5095C94.9563 66.481 93.2989 65.7775 91.5495 65.4472C83.3407 64.0402 75.6267 65.9823 68.0782 68.833C64.3904 70.0756 61.0974 72.2696 58.5334 75.1925C53.7914 80.8348 48.7255 86.1977 43.3609 91.2541C41.9246 92.6226 40.5186 94.0204 39.1228 95.4274C38.0091 96.374 37.507 97.8551 37.8161 99.2822C38.4 101.663 39.3793 103.709 41.6901 105.113C45.4961 107.446 49.8898 108.648 54.3559 108.577V108.573ZM63.7007 65.615L63.7012 65.6151V65.6142L63.7007 65.615ZM62.8736 65.5013C63.1531 65.5023 63.4313 65.5406 63.7007 65.615C62.1051 68.5085 59.7291 70.8979 56.8423 72.5125C52.1952 75.082 47.9078 78.2519 44.0911 81.9402C40.492 85.5499 37.1329 89.3212 35.932 94.4288C35.5778 95.5962 34.7983 96.5887 33.7472 97.2107C28.9795 100.826 23.7774 103.832 18.2621 106.158C15.3436 107.285 12.1641 107.56 9.0952 106.95C5.18807 106.265 2.84324 103.846 1.85474 100.123C1.2163 97.7975 1.15695 95.3515 1.68186 92.9979C2.4062 89.5814 3.50747 86.2555 4.96554 83.081C9.54041 73.6851 15.7988 65.2039 23.4317 58.0561C33.8147 47.9201 45.9597 39.7556 59.2727 33.9618C64.6667 31.6599 70.3347 29.8399 76.2842 29.5646C81.8492 29.3048 82.9665 30.9229 81.1393 36.0048C78.8809 42.2799 74.914 47.4939 70.4304 52.4106C68.3775 54.6601 66.426 56.9983 64.4745 59.3364L64.4745 59.3365L64.4739 59.3371C63.6117 60.3701 62.7495 61.4032 61.8786 62.4285C61.667 62.6808 61.4699 62.945 61.2883 63.2197L61.2366 63.2954C60.8144 63.9132 60.357 64.5825 60.7872 65.3178C61.2079 66.0335 61.7906 65.8397 62.369 65.6474C62.539 65.5909 62.7086 65.5345 62.8736 65.5013ZM77.5182 47.7298C77.5302 47.7185 77.5424 47.7073 77.5549 47.6963C77.5525 47.7163 77.5504 47.7363 77.5485 47.7564C77.5338 47.7635 77.519 47.7707 77.5044 47.778L77.5173 47.7298H77.5182ZM77.5044 47.778C76.4931 48.2815 75.7703 49.2224 75.546 50.3283C76.5081 49.7667 77.2111 48.8509 77.5044 47.778ZM75.5016 50.3868L75.5145 50.3465L75.546 50.3283L75.5384 50.3667L75.5016 50.3868ZM75.5016 50.3868C74.2461 51.0796 73.3064 52.2287 72.8779 53.5952C74.1241 52.8914 75.0605 51.7465 75.5016 50.3868ZM72.831 53.6558L72.8396 53.6166L72.8779 53.5952L72.8653 53.6359L72.831 53.6558ZM70.4911 56.2012C71.6711 55.8299 72.5622 54.8591 72.831 53.6558C71.8133 54.2508 70.9979 55.1375 70.4911 56.2012ZM77.5549 47.6963C77.6423 46.9599 78.0815 46.3096 78.7357 45.9529C78.9965 46.7609 78.5051 47.0678 78.0141 47.3745C77.8519 47.4757 77.6898 47.577 77.5549 47.6963Z" fill="white"/>
</g>
<g id="Group_132">
<path id="Path_133" d="M80.1776 87.2192C80.4534 87.1476 80.6373 87.255 80.5656 87.4854C80.5123 87.6405 80.2934 87.7708 80.1178 87.8461C79.8585 87.9617 79.6663 87.8323 79.7426 87.5891C79.7923 87.4367 80.0249 87.3394 80.1776 87.2192Z" fill="white"/>
</g>
</g>
</svg>
